<?xml version="1.0" standalone="no"?>
<!DOCTYPE svg PUBLIC "-//W3C//DTD SVG 20010904//EN"
 "http://www.w3.org/TR/2001/REC-SVG-20010904/DTD/svg10.dtd">
<svg version="1.0" xmlns="http://www.w3.org/2000/svg"
 width="1024.000000pt" height="1024.000000pt" viewBox="0 0 1024.000000 1024.000000"
 preserveAspectRatio="xMidYMid meet">
<metadata>
Created by potrace 1.11, written by Peter Selinger 2001-2013
</metadata>
<g transform="translate(0.000000,1024.000000) scale(0.100000,-0.100000)"
fill="#000000" stroke="none">
<path d="M4097 9183 c-4 -3 -7 -19 -7 -35 0 -15 -3 -28 -8 -28 -4 0 -8 -12 -8
-27 -1 -16 -4 -39 -7 -53 -3 -14 -8 -36 -11 -50 -3 -14 -8 -36 -11 -50 -3 -14
-8 -36 -11 -50 -3 -14 -7 -34 -8 -45 -2 -11 -4 -20 -5 -20 -1 0 -4 -16 -7 -35
-2 -19 -7 -42 -10 -50 -4 -8 -8 -26 -10 -40 -5 -32 -12 -65 -14 -65 -1 0 -3
-16 -6 -35 -2 -19 -7 -42 -10 -50 -4 -8 -9 -33 -11 -55 -2 -21 -7 -42 -11 -45
-4 -3 -8 -21 -10 -40 -1 -19 -5 -42 -8 -50 -4 -8 -8 -30 -10 -49 -2 -18 -8
-39 -14 -45 -5 -7 -8 -15 -5 -18 3 -2 -9 -70 -26 -149 -17 -79 -31 -152 -32
-161 -1 -10 -5 -18 -9 -18 -4 0 -5 -7 -2 -15 3 -8 2 -19 -2 -26 -4 -7 -9 -30
-11 -52 -2 -21 -6 -44 -10 -51 -4 -6 -8 -20 -9 -31 -1 -11 -5 -31 -9 -45 -4
-14 -8 -35 -10 -47 -2 -12 -6 -34 -9 -50 -4 -15 -9 -38 -11 -50 -3 -13 -7 -33
-10 -45 -3 -13 -8 -34 -10 -48 -2 -14 -7 -36 -10 -50 -3 -14 -8 -36 -11 -50
-2 -14 -7 -36 -10 -50 -7 -27 -15 -68 -16 -87 -1 -7 -4 -13 -7 -13 -5 0 -8
-19 -11 -72 -2 -27 -27 -43 -45 -28 -8 7 -15 19 -15 27 0 8 -4 12 -9 9 -12 -8
-43 29 -34 39 5 4 3 5 -3 2 -13 -8 -117 87 -107 97 5 4 3 6 -3 4 -6 -1 -25 11
-41 27 -17 17 -39 35 -49 42 -10 6 -18 16 -16 22 1 6 -3 11 -10 11 -6 0 -33
22 -59 49 -26 27 -50 47 -53 43 -3 -3 -6 2 -6 11 0 10 -4 16 -8 15 -11 -4 -68
54 -64 65 1 5 -1 6 -6 3 -5 -3 -25 13 -45 35 -20 21 -40 40 -44 42 -5 1 -7 5
-5 10 1 4 -4 6 -10 5 -7 -2 -12 3 -10 10 1 8 -1 11 -6 8 -5 -3 -23 9 -39 27
-16 17 -46 45 -66 61 -20 16 -33 34 -30 40 3 6 3 8 -1 4 -11 -9 -46 23 -39 35
3 6 1 7 -5 4 -5 -4 -22 6 -35 23 -14 16 -29 30 -33 30 -4 0 -38 30 -76 68 -37
37 -83 80 -102 96 -19 16 -34 34 -33 40 1 6 -3 10 -10 9 -6 -1 -25 13 -42 32
-17 20 -33 35 -36 35 -3 0 -5 3 -6 8 0 4 -9 10 -20 14 -10 4 -19 14 -19 23 0
8 -4 14 -9 13 -5 -2 -21 9 -37 25 -99 95 -167 157 -170 154 -2 -2 6 -28 17
-58 11 -30 22 -58 23 -64 2 -5 6 -18 10 -27 4 -9 9 -22 11 -30 2 -7 6 -24 11
-38 4 -14 6 -27 5 -29 -2 -2 2 -7 8 -10 6 -4 12 -18 13 -31 2 -14 7 -28 11
-31 4 -3 9 -16 10 -27 1 -12 5 -22 10 -22 5 0 7 -7 3 -15 -3 -8 -2 -15 3 -15
5 0 11 -12 14 -27 3 -16 11 -41 18 -58 7 -16 13 -32 14 -35 1 -3 7 -18 13 -33
7 -16 10 -32 7 -37 -3 -5 -1 -10 5 -12 5 -1 11 -12 13 -23 2 -11 7 -28 11 -37
4 -9 9 -22 10 -30 2 -7 11 -31 21 -53 10 -22 18 -52 19 -67 0 -14 3 -24 5 -22
7 7 31 -57 25 -67 -3 -5 0 -9 6 -9 7 0 10 -7 6 -15 -3 -8 -1 -15 4 -15 6 0 10
-8 10 -18 0 -10 3 -22 7 -26 11 -11 32 -79 27 -88 -3 -4 0 -8 6 -8 7 0 10 -6
7 -14 -3 -8 -1 -16 4 -18 6 -2 12 -12 14 -23 2 -11 4 -21 5 -22 2 -2 4 -7 5
-13 1 -5 4 -12 5 -15 1 -3 4 -9 5 -15 1 -5 4 -12 5 -15 1 -3 3 -8 5 -12 1 -5
7 -21 14 -38 7 -16 14 -34 15 -40 2 -5 6 -18 10 -27 4 -9 9 -22 10 -30 2 -7 6
-21 10 -30 4 -9 9 -22 11 -30 2 -7 6 -23 10 -35 4 -12 6 -25 5 -29 -1 -4 4
-10 11 -14 6 -4 12 -21 13 -38 0 -17 4 -28 8 -26 6 4 24 -54 20 -68 -1 -5 3
-8 9 -8 6 0 9 -6 6 -14 -3 -8 -2 -16 3 -18 5 -2 11 -14 14 -28 2 -14 5 -26 7
-27 1 -2 2 -7 3 -12 0 -5 4 -13 9 -17 10 -11 9 -44 -3 -44 -13 0 -84 34 -88
42 -2 4 -10 4 -18 1 -8 -3 -14 0 -14 7 0 6 -4 9 -9 5 -5 -3 -15 0 -23 7 -7 7
-17 13 -23 13 -19 0 -85 27 -85 34 0 4 -10 7 -22 8 -11 1 -24 6 -27 10 -3 4
-15 10 -26 11 -11 2 -24 8 -29 13 -6 5 -18 9 -28 9 -10 0 -18 4 -18 8 0 5 -6
9 -14 9 -19 0 -76 24 -76 32 0 3 -12 7 -27 8 -15 0 -29 6 -31 12 -2 6 -8 9
-13 5 -5 -3 -9 -1 -9 5 0 6 -7 8 -15 5 -8 -4 -15 -1 -15 5 0 6 -3 10 -7 10 -5
-1 -11 0 -15 1 -5 1 -11 3 -15 4 -5 1 -25 10 -47 19 -21 9 -43 17 -48 17 -5 0
-7 4 -4 9 4 5 -4 7 -16 3 -14 -3 -19 -1 -14 6 5 8 2 10 -8 6 -9 -3 -16 -1 -16
5 0 6 -3 10 -7 9 -17 -6 -92 26 -86 35 3 6 1 7 -4 4 -6 -4 -33 3 -59 15 -27
12 -56 23 -64 24 -8 2 -16 7 -18 13 -2 5 -9 8 -16 5 -8 -3 -20 1 -27 8 -8 7
-18 13 -24 13 -19 1 -85 29 -85 37 0 4 -7 5 -15 2 -8 -4 -15 -1 -15 6 0 6 -4
8 -10 5 -5 -3 -10 -1 -10 5 0 6 -4 9 -8 6 -5 -3 -21 2 -36 10 -16 7 -35 14
-42 14 -8 0 -14 4 -14 8 0 5 -7 9 -15 9 -19 0 -98 35 -107 48 -4 5 -8 7 -8 3
0 -4 -32 6 -72 23 -39 16 -73 27 -76 24 -3 -3 0 -5 6 -5 7 0 12 -7 12 -15 0
-8 5 -15 10 -15 6 0 10 -7 10 -15 0 -8 5 -15 11 -15 6 0 8 -7 5 -16 -3 -8 -2
-12 4 -9 6 3 10 -1 10 -9 0 -9 5 -16 12 -16 6 0 9 -3 5 -6 -3 -3 3 -15 14 -27
10 -11 19 -27 19 -34 0 -7 5 -13 10 -13 6 0 10 -5 10 -12 0 -6 11 -26 26 -45
14 -18 22 -38 18 -45 -4 -7 -3 -8 4 -4 8 5 12 -1 12 -15 0 -12 3 -19 7 -16 8
8 64 -73 58 -84 -3 -4 2 -10 11 -13 8 -3 12 -10 9 -16 -3 -5 -2 -10 2 -10 5 0
17 -17 28 -37 11 -21 28 -47 37 -57 10 -11 18 -26 18 -33 0 -7 5 -13 11 -13 5
0 7 -4 4 -10 -3 -5 -2 -10 2 -10 13 0 43 -56 35 -65 -4 -5 -2 -5 4 -2 11 6 28
-26 25 -46 -1 -5 2 -6 7 -3 5 3 22 -20 38 -50 16 -29 32 -54 36 -54 8 0 23
-42 19 -55 -1 -5 1 -7 5 -3 10 11 37 -30 28 -44 -4 -7 -3 -8 4 -4 8 5 12 -1
12 -14 0 -12 4 -19 8 -16 5 3 16 -8 26 -25 9 -16 15 -29 12 -29 -3 0 3 -10 14
-22 10 -13 19 -27 19 -31 0 -4 7 -15 16 -23 8 -9 12 -20 9 -26 -4 -7 -2 -8 4
-4 7 4 12 1 12 -8 0 -9 5 -16 11 -16 5 0 7 -4 4 -10 -3 -5 -2 -10 3 -10 14 0
52 -76 44 -86 -4 -4 -1 -4 6 0 6 4 12 2 12 -4 0 -6 5 -16 10 -23 22 -26 59
-87 53 -87 -4 0 1 -6 12 -13 11 -9 15 -19 10 -27 -5 -8 -4 -11 2 -7 5 4 16 -6
24 -21 8 -15 20 -33 27 -40 7 -8 10 -18 7 -23 -4 -5 -1 -9 4 -9 14 0 14 -40 1
-41 -5 -1 -18 -2 -27 -2 -10 -1 -20 -4 -23 -8 -3 -4 -18 -9 -35 -12 -16 -3
-45 -10 -64 -16 -18 -6 -36 -10 -40 -9 -3 1 -13 -1 -21 -4 -24 -9 -154 -42
-170 -43 -9 0 -20 -4 -26 -7 -9 -6 -40 -14 -84 -22 -8 -2 -22 -6 -31 -10 -9
-4 -27 -8 -40 -10 -13 -2 -31 -6 -40 -10 -9 -4 -27 -8 -40 -10 -13 -2 -37 -8
-52 -15 -15 -6 -31 -10 -35 -10 -4 1 -9 0 -12 -1 -5 -2 -23 -6 -55 -13 -11 -3
-47 -13 -80 -22 -33 -10 -69 -19 -80 -20 -11 -1 -20 -3 -20 -4 0 -3 -37 -12
-60 -14 -11 -1 -22 -5 -25 -8 -3 -4 -23 -10 -45 -14 -58 -10 -59 -10 -73 -19
-7 -4 -16 -5 -19 -2 -3 3 -12 1 -19 -5 -8 -6 -21 -9 -29 -5 -8 3 -15 2 -15 -3
0 -10 -99 -33 -111 -25 -5 3 -9 0 -9 -5 0 -6 -9 -11 -21 -11 -11 0 -28 -4 -37
-9 -15 -8 -43 -15 -107 -26 -11 -2 -20 -4 -20 -5 0 -1 -7 -3 -15 -5 -8 -2 -33
-9 -55 -15 -93 -25 -107 -28 -117 -29 -5 -1 -8 -8 -8 -17 0 -8 4 -12 10 -9 5
3 20 0 32 -7 13 -6 30 -13 38 -14 8 -2 16 -7 18 -13 2 -5 9 -8 16 -5 8 3 21
-2 29 -11 9 -9 18 -15 19 -14 2 2 14 -1 28 -5 14 -5 28 -8 33 -7 4 1 7 -4 7
-9 0 -5 3 -9 8 -9 22 4 42 -2 37 -11 -3 -6 1 -7 9 -4 9 3 16 2 16 -3 0 -5 10
-9 22 -10 11 -1 24 -7 28 -13 4 -7 10 -11 14 -11 21 3 37 0 33 -6 -3 -5 6 -9
20 -10 14 0 28 -5 32 -10 3 -4 15 -10 25 -11 11 -2 49 -16 85 -32 78 -33 101
-42 121 -46 8 -2 16 -8 18 -14 2 -5 8 -8 13 -5 5 3 19 0 31 -7 13 -7 26 -11
31 -10 4 1 7 -3 7 -9 0 -5 4 -8 9 -4 5 3 12 1 16 -5 4 -6 10 -8 15 -5 5 3 14
0 22 -7 7 -7 22 -15 33 -16 11 -2 22 -8 23 -13 2 -5 8 -7 13 -4 4 3 28 -4 51
-17 24 -12 52 -23 62 -25 11 -2 24 -7 30 -11 6 -5 30 -14 53 -22 24 -7 43 -17
43 -21 0 -5 6 -6 14 -3 7 3 20 -1 27 -8 8 -7 19 -13 24 -13 19 -1 85 -29 85
-37 0 -4 7 -5 15 -2 8 4 15 1 15 -5 0 -6 3 -10 8 -9 4 1 23 -4 42 -11 19 -8
38 -13 43 -12 4 0 7 -4 7 -10 0 -5 4 -8 9 -4 5 3 12 1 16 -5 4 -6 10 -8 15 -5
5 3 15 -1 23 -9 8 -8 17 -13 20 -10 3 3 16 0 29 -7 12 -7 25 -14 28 -14 3 -1
18 -7 33 -13 16 -7 33 -12 38 -12 5 0 9 -5 9 -11 0 -5 5 -7 10 -4 6 3 10 0 10
-8 0 -13 -10 -21 -32 -26 -4 -1 -19 -13 -34 -26 -15 -14 -30 -22 -34 -20 -4 3
-11 -2 -14 -11 -3 -8 -10 -13 -15 -10 -5 3 -11 -1 -15 -9 -3 -8 -10 -15 -16
-15 -6 0 -18 -7 -27 -15 -8 -8 -19 -12 -25 -9 -6 4 -8 3 -5 -3 4 -5 -6 -16
-21 -24 -15 -8 -29 -17 -32 -21 -3 -3 -12 -8 -20 -10 -8 -2 -20 -7 -27 -13
-29 -24 -40 -31 -68 -49 -16 -11 -31 -18 -32 -15 -1 2 -9 -5 -17 -16 -9 -11
-16 -17 -16 -12 0 4 -9 -2 -20 -13 -12 -12 -26 -18 -32 -14 -7 4 -8 3 -4 -4 4
-7 1 -12 -8 -12 -9 0 -16 -5 -16 -12 0 -6 -3 -9 -6 -5 -3 3 -15 -3 -27 -13
-11 -11 -25 -17 -30 -13 -6 3 -7 1 -3 -5 4 -7 -3 -14 -18 -18 -13 -3 -27 -12
-30 -21 -3 -8 -10 -11 -16 -8 -6 3 -13 -1 -16 -9 -3 -9 -12 -16 -19 -16 -6 0
-25 -11 -40 -24 -16 -14 -32 -23 -36 -20 -4 2 -9 -3 -13 -11 -3 -8 -12 -15
-21 -15 -8 0 -15 -4 -15 -10 0 -5 -7 -10 -15 -10 -8 0 -15 -4 -15 -10 0 -5 -5
-10 -10 -10 -6 0 -21 -9 -33 -20 -12 -11 -26 -19 -32 -16 -6 2 -12 -5 -12 -15
-1 -14 5 -19 25 -19 44 -1 182 -9 252 -14 36 -3 115 -8 175 -11 61 -3 128 -7
150 -10 22 -3 92 -7 155 -11 63 -3 135 -7 160 -9 68 -6 222 -16 248 -16 24 1
31 -26 8 -35 -8 -3 -16 -15 -19 -26 -3 -11 -10 -17 -17 -13 -6 3 -9 2 -8 -4 3
-10 -42 -69 -94 -124 -16 -16 -28 -32 -28 -37 0 -4 -15 -21 -32 -36 -18 -15
-33 -32 -33 -38 -1 -6 -6 -10 -13 -9 -7 2 -11 -1 -9 -6 2 -9 -45 -68 -110
-138 -18 -18 -33 -37 -35 -41 -2 -4 -7 -6 -11 -4 -5 1 -6 -2 -3 -7 4 -5 -5
-18 -19 -30 -15 -11 -27 -23 -28 -28 -1 -4 -5 -7 -9 -6 -5 2 -7 0 -6 -5 4 -13
-34 -62 -43 -56 -5 3 -8 1 -7 -5 3 -9 -30 -52 -99 -130 -18 -20 -33 -40 -33
-44 0 -5 -4 -5 -10 -2 -5 3 -10 -1 -10 -9 0 -8 -10 -22 -22 -30 -12 -9 -18
-16 -13 -16 6 -1 1 -8 -10 -18 -11 -9 -38 -40 -60 -67 -21 -28 -49 -59 -60
-70 -12 -11 -24 -29 -28 -38 -4 -11 -12 -15 -18 -11 -8 4 -9 3 -5 -5 4 -6 1
-14 -8 -17 -8 -3 -18 -14 -21 -25 -4 -11 -11 -17 -16 -14 -5 4 -9 1 -9 -5 0
-6 -4 -16 -10 -23 -5 -7 -25 -30 -42 -52 -18 -21 -45 -52 -60 -67 -14 -15 -23
-28 -20 -28 4 0 -4 -10 -18 -23 -14 -12 -30 -31 -37 -42 -6 -11 -16 -19 -23
-17 -6 1 -9 -2 -6 -7 4 -5 -2 -16 -12 -23 -10 -7 -21 -21 -25 -31 -4 -11 -12
-15 -19 -11 -7 4 -10 4 -6 -1 11 -11 -31 -67 -44 -59 -7 4 -8 2 -4 -4 4 -7 3
-12 -2 -12 -5 0 -14 -12 -20 -26 -7 -15 -17 -22 -24 -18 -7 4 -8 3 -4 -4 8
-13 32 -11 61 5 11 6 29 13 40 14 11 2 23 8 26 12 4 5 18 10 32 10 14 1 23 5
21 8 -2 3 16 12 39 20 23 7 53 19 66 26 14 6 28 10 33 7 4 -3 8 0 8 5 0 6 7
11 15 11 8 0 23 4 33 9 15 9 49 22 62 25 3 1 15 7 28 14 12 7 22 10 22 6 0 -3
6 -2 12 3 7 6 31 16 53 23 22 7 46 17 53 23 6 5 12 7 12 3 0 -4 11 1 25 10 13
8 29 13 35 9 5 -3 10 -2 10 2 0 7 54 33 80 38 3 1 23 9 45 19 22 10 47 19 55
21 8 2 17 4 20 5 3 1 8 2 13 1 4 0 7 4 7 10 0 5 4 8 9 4 5 -3 13 0 16 6 4 5
14 8 22 5 8 -3 12 -2 8 3 -5 8 45 25 61 21 4 -1 10 3 14 10 4 6 13 13 21 14
20 4 71 24 92 36 10 6 22 8 27 5 4 -3 10 -1 12 4 1 5 12 11 23 13 11 1 23 7
26 11 3 4 16 9 27 10 12 1 22 4 22 8 0 7 83 36 89 31 2 -2 7 0 10 5 9 14 88
43 95 36 3 -4 6 -1 6 6 0 8 7 11 15 7 8 -3 15 -1 15 5 0 6 5 7 10 4 6 -3 10
-1 10 5 0 7 7 10 15 6 8 -3 15 -1 15 4 0 6 5 10 11 10 11 0 67 23 102 41 10 5
22 7 27 4 6 -4 10 -1 10 4 0 6 8 11 18 11 10 0 22 3 26 8 4 4 11 7 14 8 4 0
18 5 32 11 26 12 59 25 73 28 4 2 10 4 15 5 4 1 10 2 15 1 4 0 7 3 7 8 0 7 36
22 62 25 3 1 10 4 14 9 4 4 13 7 21 7 10 0 12 -34 9 -167 -7 -333 -15 -662
-21 -853 -13 -418 -13 -480 -2 -487 6 -3 7 -1 3 5 -4 7 -2 12 3 12 6 0 11 5
11 10 0 10 8 21 68 86 12 14 22 28 22 32 0 4 17 26 39 48 21 23 41 49 44 58 4
10 12 14 18 10 7 -4 9 -3 5 4 -3 6 3 17 14 25 11 7 17 16 14 19 -3 3 7 15 21
26 14 11 26 24 27 29 0 4 4 7 10 5 5 -1 7 2 4 7 -4 5 0 13 8 18 8 4 14 10 13
13 -1 5 26 40 56 72 9 10 17 22 17 26 0 4 22 31 49 60 28 29 51 56 51 60 1 4
6 6 12 4 5 -1 7 2 4 7 -4 5 1 14 10 19 9 5 16 13 17 18 1 10 11 23 52 67 16
18 27 32 25 32 -7 1 18 31 60 73 19 20 28 32 20 28 -8 -4 -6 1 6 11 11 10 34
37 51 60 17 23 34 39 38 35 5 -4 5 -2 2 4 -4 6 12 31 34 55 22 24 41 46 42 49
1 3 6 4 10 2 5 -1 6 2 3 7 -9 14 11 23 34 16 17 -5 30 -27 30 -48 -1 -4 6 -15
15 -23 8 -9 13 -20 10 -25 -4 -5 -1 -9 4 -9 12 0 54 -84 54 -106 0 -7 4 -11 8
-9 10 7 20 -25 12 -37 -3 -6 -1 -8 4 -5 10 6 38 -47 34 -66 0 -4 3 -7 7 -7 8
0 34 -46 34 -60 0 -3 9 -17 20 -32 10 -16 16 -33 12 -39 -4 -7 -3 -9 3 -6 8 5
41 -53 46 -80 0 -5 9 -17 19 -27 16 -18 23 -38 19 -59 -1 -5 3 -6 9 -2 9 5 11
1 10 -20 -1 -3 6 -13 15 -21 8 -9 13 -19 10 -24 -3 -5 -2 -10 2 -12 5 -1 19
-25 33 -53 13 -27 37 -70 52 -95 14 -25 28 -52 30 -60 2 -8 9 -21 16 -28 7 -8
10 -17 7 -22 -3 -5 -1 -10 4 -12 5 -1 11 -10 13 -18 2 -8 9 -21 16 -28 7 -8 9
-18 6 -24 -4 -6 -2 -8 3 -5 13 8 26 -20 16 -35 -3 -7 -1 -8 5 -4 11 6 16 -6
13 -26 0 -5 4 -8 10 -8 5 0 8 -4 5 -9 -4 -5 -3 -11 2 -13 4 -1 27 -43 52 -93
25 -49 50 -93 55 -97 6 -4 6 -8 2 -8 -5 0 -1 -7 8 -16 9 -9 14 -23 11 -31 -3
-8 -2 -12 2 -9 7 4 37 -50 35 -64 0 -3 7 -10 16 -17 9 -7 12 -13 8 -13 -5 0
-1 -7 7 -16 9 -8 14 -19 11 -24 -3 -5 -2 -10 2 -12 5 -1 17 -21 28 -43 25 -49
37 -51 40 -5 1 19 5 49 8 65 4 17 10 40 12 53 3 12 7 32 10 45 3 12 8 36 11
52 7 43 12 66 19 100 4 17 8 39 10 50 1 11 3 20 5 20 2 0 10 53 11 77 0 10 3
18 7 18 4 0 8 12 8 28 1 25 11 77 14 77 1 0 4 18 6 40 2 22 7 47 10 55 4 8 6
23 5 32 -1 10 2 18 8 18 6 0 8 6 5 13 -2 7 2 42 11 78 9 35 18 77 20 92 5 31
21 118 30 157 3 14 8 41 11 60 3 19 7 42 10 49 3 8 7 35 10 60 3 25 9 48 12
51 4 3 8 14 9 25 1 11 5 34 8 50 3 17 8 48 11 70 3 21 8 44 12 50 3 5 7 23 8
39 2 16 6 41 10 55 4 14 6 32 5 39 -3 17 25 15 41 -3 31 -34 36 -43 30 -51 -4
-4 -2 -4 5 -1 14 9 66 -51 57 -65 -4 -6 -2 -8 4 -4 13 8 84 -73 75 -87 -3 -6
-2 -7 4 -4 11 7 45 -28 36 -37 -4 -3 2 -6 12 -6 10 0 16 -2 13 -5 -2 -3 24
-35 59 -71 34 -37 60 -71 56 -77 -3 -5 -2 -7 4 -4 10 6 60 -52 55 -66 -1 -4 4
-6 10 -5 7 2 12 -3 10 -10 -1 -8 1 -11 6 -8 4 2 17 -7 28 -21 10 -15 25 -32
32 -39 6 -7 12 -17 12 -23 0 -6 5 -10 11 -9 6 2 16 -6 22 -17 7 -11 20 -26 30
-33 9 -7 15 -18 11 -23 -3 -5 -2 -8 3 -7 4 2 9 0 11 -4 2 -4 24 -29 50 -56 65
-67 81 -89 74 -98 -4 -4 -2 -4 4 -1 6 3 18 -3 27 -14 9 -10 15 -19 12 -19 -2
0 12 -15 30 -34 19 -18 35 -36 35 -39 0 -5 21 -28 126 -138 18 -21 34 -40 34
-43 0 -3 17 -22 37 -41 20 -19 34 -35 30 -35 -3 0 15 -22 41 -49 26 -26 57
-61 70 -77 l23 -29 -5 45 c-3 25 -10 80 -15 124 -6 43 -9 82 -6 86 3 5 0 12
-5 15 -6 4 -11 19 -10 33 1 15 1 29 0 32 -2 3 -4 21 -6 40 -2 19 -6 49 -8 65
-8 43 -18 124 -21 166 -1 20 -5 41 -9 47 -3 5 -4 24 -2 41 2 17 -1 31 -5 31
-5 0 -9 12 -8 27 1 16 -1 42 -4 58 -6 31 -13 77 -22 155 -23 183 -35 273 -40
310 -13 77 -25 171 -23 178 1 4 -2 23 -5 42 -4 19 -9 55 -12 80 -2 25 -13 108
-24 185 -10 77 -19 147 -20 155 -1 8 -4 41 -7 73 -5 58 -5 59 18 52 13 -4 26
-12 29 -17 3 -5 9 -9 13 -9 20 3 26 0 21 -9 -4 -6 -3 -9 2 -8 12 4 83 -24 83
-32 0 -4 6 -7 13 -7 17 0 131 -54 138 -65 3 -5 8 -9 10 -9 13 2 49 -13 49 -20
0 -5 6 -6 14 -3 7 3 21 -2 30 -11 9 -9 16 -14 16 -11 0 3 30 -10 66 -29 36
-19 72 -35 80 -35 8 0 14 -5 14 -11 0 -5 5 -7 10 -4 6 3 10 1 10 -4 0 -6 3
-10 8 -9 10 3 126 -52 133 -64 3 -5 10 -9 15 -9 18 1 74 -23 74 -33 0 -5 3 -7
6 -3 3 3 30 -8 60 -24 48 -26 99 -42 68 -21 -16 10 -54 88 -47 96 4 3 1 6 -5
6 -10 0 -28 38 -24 53 1 4 -3 7 -9 7 -6 0 -9 7 -5 15 3 8 2 15 -3 15 -10 0
-24 39 -21 59 1 7 -3 10 -8 7 -9 -5 -27 39 -24 57 1 4 -3 7 -8 7 -6 0 -10 5
-10 10 0 6 -11 33 -25 61 -13 29 -22 56 -19 60 3 5 1 9 -4 9 -10 0 -58 109
-54 123 1 4 -2 7 -6 7 -9 0 -37 70 -34 83 1 4 -3 7 -8 7 -6 0 -10 9 -10 20 0
11 -4 20 -10 20 -5 0 -10 6 -10 13 0 8 -14 41 -30 76 -17 34 -31 67 -33 74 -1
7 -6 15 -10 18 -4 3 -9 16 -10 27 -1 12 -5 22 -9 22 -4 0 -8 5 -8 10 0 6 -19
50 -42 98 -23 48 -41 95 -40 105 0 9 -3 15 -9 12 -8 -5 -11 8 -8 31 0 4 -4 10
-11 14 -6 4 -13 19 -16 33 -3 22 0 27 16 28 11 1 23 2 28 4 4 1 21 5 37 9 17
4 48 12 70 17 22 5 50 12 63 14 40 9 57 13 102 25 25 7 54 14 65 16 11 1 20 3
20 4 0 2 18 6 60 12 11 2 22 5 25 8 4 5 31 11 145 34 6 1 19 5 30 9 11 3 31 9
45 11 14 3 93 22 175 42 83 20 162 37 177 37 15 1 24 5 22 9 -3 4 5 9 18 10
37 2 42 3 54 10 11 7 68 18 107 21 9 1 17 5 17 10 0 5 9 7 20 4 11 -3 20 -1
20 3 0 5 8 9 18 9 53 2 72 6 72 14 0 5 7 7 15 4 8 -4 17 -2 19 2 5 8 62 21
116 27 14 1 60 12 103 23 43 12 82 19 88 16 5 -4 9 -2 9 2 0 7 97 35 135 39 6
0 17 4 26 8 9 4 27 8 40 10 13 2 32 7 41 11 9 4 22 4 28 0 5 -3 10 -1 10 5 0
7 6 10 14 7 8 -3 17 -3 20 1 7 6 32 13 56 14 8 0 21 5 27 10 7 6 20 8 28 4 8
-3 15 -2 15 3 0 4 6 8 13 9 6 0 23 3 37 7 14 3 36 7 50 8 14 1 27 5 30 8 4 6
30 13 95 24 11 2 21 4 23 5 1 2 10 3 20 4 9 1 22 4 28 8 6 4 26 10 45 12 19 3
59 12 89 20 30 8 66 17 80 20 14 3 58 14 98 25 39 10 72 17 72 15 0 -3 8 0 18
5 9 5 31 12 47 15 17 3 48 10 69 15 22 5 43 8 47 5 4 -2 11 1 14 7 4 5 13 8
21 5 8 -3 14 0 14 5 0 6 9 9 20 6 11 -3 20 -1 20 5 0 6 6 8 14 5 8 -3 17 -3
20 1 8 7 33 13 64 16 12 0 22 4 22 7 0 3 6 6 13 7 18 2 59 10 87 17 14 4 48
11 75 17 60 12 91 27 60 29 -11 1 -26 1 -32 0 -7 -1 -13 2 -13 7 0 5 -10 8
-22 7 -13 -1 -38 2 -56 7 -42 12 -158 37 -197 44 -16 3 -37 8 -45 11 -8 3 -26
7 -40 9 -14 2 -56 11 -95 19 -38 9 -83 18 -100 21 -16 3 -37 8 -45 11 -8 3
-26 7 -40 9 -14 2 -43 7 -65 13 -67 17 -100 24 -110 25 -65 8 -114 19 -111 24
4 6 -9 8 -76 12 -10 1 -18 5 -18 10 0 5 -7 7 -15 4 -8 -4 -23 -3 -32 1 -21 9
-51 15 -75 16 -10 0 -18 3 -18 7 0 4 -8 8 -17 9 -10 0 -31 3 -48 6 -16 3 -46
9 -65 12 -19 3 -42 8 -50 11 -8 3 -26 8 -40 10 -14 2 -36 7 -50 11 -14 4 -29
8 -35 8 -62 9 -105 18 -105 24 0 3 -10 6 -22 7 -24 1 -36 3 -148 29 -36 8 -76
17 -90 20 -14 2 -36 7 -50 10 -14 3 -41 8 -60 11 -19 3 -37 9 -40 13 -3 3 -14
6 -25 5 -11 0 -33 4 -50 9 -50 14 -79 20 -97 19 -10 0 -20 3 -23 8 -3 5 -12 7
-20 3 -8 -3 -15 -1 -15 3 0 5 -10 9 -22 10 -26 1 -88 13 -97 19 -4 2 -26 6
-51 10 -24 4 -52 11 -61 15 -9 5 -18 7 -21 5 -2 -2 -20 0 -39 5 -19 5 -46 12
-62 15 -62 12 -84 17 -122 26 -22 5 -51 12 -65 15 -14 2 -56 11 -95 20 -38 9
-81 18 -95 21 -42 8 -55 11 -55 13 0 1 -18 4 -40 6 -21 3 -44 9 -51 15 -7 5
-16 9 -20 8 -5 -1 -11 -1 -14 0 -3 2 -20 4 -39 7 -19 2 -39 9 -46 14 -7 5 -15
7 -18 4 -3 -4 -14 -3 -24 1 -10 4 -25 9 -33 11 -73 14 -105 22 -105 24 0 2
-37 9 -62 12 -16 2 -17 28 -2 28 5 0 8 4 4 9 -3 6 2 14 11 19 9 5 15 12 14 16
-2 12 43 96 52 96 5 0 7 4 3 9 -3 6 2 14 11 19 9 5 15 11 13 13 -5 9 13 49 22
49 5 0 8 3 8 8 -3 20 2 32 13 26 6 -4 8 -3 4 4 -3 6 0 17 8 25 8 8 12 17 9 21
-4 3 -1 6 6 6 7 0 10 4 6 9 -3 6 2 14 11 19 9 5 15 11 14 13 -4 11 21 59 30
59 6 0 9 4 6 9 -3 5 3 20 14 34 11 14 20 30 20 36 0 6 4 11 10 11 5 0 9 3 8 8
-3 12 25 62 34 62 5 0 7 4 4 9 -3 5 1 14 9 21 8 7 12 16 9 21 -3 5 2 12 10 15
9 3 14 9 11 13 -2 4 7 24 20 44 14 20 25 41 25 46 0 6 5 11 10 11 6 0 10 8 10
18 0 9 9 28 20 42 11 14 20 30 20 36 0 5 10 21 23 34 12 14 20 25 19 25 -2 0
2 12 9 27 6 15 16 25 20 22 5 -3 6 2 3 10 -3 9 -2 16 2 16 5 0 18 20 29 45 11
25 22 45 25 45 4 0 12 16 20 35 8 19 17 35 22 35 4 0 8 7 8 15 0 8 5 15 11 15
5 0 8 4 4 10 -3 5 3 18 14 29 11 11 17 22 13 25 -3 3 0 6 7 6 7 0 9 5 6 10 -3
6 -1 10 5 10 6 0 9 4 5 9 -3 5 0 15 7 23 16 17 58 87 65 111 3 9 10 17 15 17
5 0 7 4 3 9 -3 6 3 14 12 20 10 6 14 11 10 11 -7 0 20 58 34 70 3 3 13 22 22
43 10 20 22 37 28 37 6 0 8 4 4 9 -3 5 1 16 9 24 8 8 12 17 9 21 -3 3 2 8 11
12 9 3 14 10 11 14 -3 5 3 16 12 26 10 10 16 19 13 20 -3 2 3 12 12 24 10 11
15 20 12 20 -3 0 3 12 14 28 11 15 23 37 26 50 4 12 12 22 17 22 6 0 7 5 4 10
-3 6 -3 10 2 10 4 0 21 27 37 60 16 33 33 60 38 60 5 0 6 5 3 10 -3 6 0 13 8
16 16 6 17 28 2 41 -4 4 -5 3 -1 -4 6 -11 -29 -30 -47 -25 -5 1 -6 -2 -3 -7 5
-8 -15 -21 -30 -20 -4 0 -10 -3 -13 -8 -3 -4 -15 -15 -25 -23 -18 -13 -19 -13
-12 0 4 8 0 6 -8 -4 -9 -11 -16 -16 -16 -10 0 5 -5 1 -11 -8 -5 -10 -17 -18
-24 -18 -8 0 -15 -5 -15 -11 0 -5 -4 -8 -9 -5 -5 4 -11 3 -13 -1 -5 -12 -68
-55 -83 -57 -7 -1 -20 -9 -29 -19 -10 -9 -22 -17 -27 -17 -6 0 -17 -7 -26 -15
-8 -8 -19 -12 -25 -9 -6 4 -8 3 -5 -2 3 -5 -19 -23 -49 -39 -30 -16 -54 -33
-54 -38 0 -4 -4 -5 -10 -2 -5 3 -10 2 -10 -3 0 -5 -8 -12 -17 -16 -19 -6 -54
-27 -63 -37 -3 -3 -21 -14 -40 -25 -19 -10 -46 -27 -59 -36 -13 -10 -28 -15
-34 -11 -6 4 -7 1 -2 -7 6 -10 4 -12 -9 -7 -10 4 -15 3 -11 -3 3 -6 -1 -10 -9
-10 -9 0 -16 -4 -16 -8 0 -9 -62 -47 -72 -44 -5 1 -8 -3 -8 -10 0 -6 -3 -8 -7
-5 -3 4 -11 0 -17 -8 -6 -7 -18 -15 -26 -17 -8 -2 -23 -11 -34 -20 -11 -10
-26 -18 -33 -18 -7 0 -13 -5 -13 -12 0 -6 -3 -9 -6 -6 -3 4 -14 -2 -25 -13
-11 -11 -24 -17 -28 -14 -5 2 -11 -2 -15 -10 -3 -8 -10 -15 -16 -15 -6 0 -18
-7 -27 -16 -9 -8 -22 -13 -30 -10 -8 3 -12 2 -9 -3 3 -5 -6 -17 -20 -26 -18
-11 -24 -12 -18 -4 4 8 -9 -1 -30 -19 -20 -18 -42 -29 -48 -26 -7 5 -8 2 -3
-6 6 -10 4 -12 -9 -7 -10 4 -15 3 -11 -3 3 -6 -2 -13 -12 -17 -10 -3 -30 -15
-45 -25 -16 -11 -28 -16 -28 -11 0 4 -5 0 -11 -9 -5 -10 -16 -18 -23 -18 -8 0
-19 -7 -26 -15 -7 -8 -16 -12 -21 -9 -5 3 -9 1 -9 -4 0 -5 -12 -15 -27 -23
-16 -8 -30 -16 -33 -19 -10 -10 -45 -31 -62 -36 -10 -4 -18 -11 -18 -16 0 -5
-4 -6 -10 -3 -5 3 -10 1 -10 -4 0 -6 -5 -11 -10 -11 -6 0 -20 -9 -32 -20 -12
-10 -25 -17 -30 -14 -4 3 -8 1 -8 -3 0 -5 -17 -17 -37 -28 -21 -11 -44 -26
-51 -32 -7 -7 -20 -13 -28 -13 -8 0 -14 -5 -14 -11 0 -6 -6 -9 -12 -7 -13 5
-20 55 -10 72 3 5 6 23 8 40 2 17 6 42 9 56 3 14 8 39 10 55 3 17 7 43 11 58
3 16 8 41 10 55 6 43 12 75 19 107 3 17 6 37 6 45 0 8 3 22 6 30 3 8 7 35 10
60 2 24 8 49 13 55 6 7 8 14 5 17 -3 2 4 54 16 114 11 60 22 125 25 144 2 19
7 43 10 52 3 9 7 40 10 69 3 29 10 61 15 72 6 10 9 21 6 23 -3 3 -1 22 4 42
11 52 26 133 33 182 2 14 7 45 12 70 4 25 7 48 6 53 -1 4 1 7 5 7 5 0 9 17 10
38 4 68 4 72 11 72 4 0 7 12 8 28 0 15 4 51 9 81 5 39 4 52 -4 47 -6 -4 -9
-11 -6 -15 7 -12 -30 -43 -40 -34 -4 5 -5 3 -2 -3 3 -5 -6 -23 -20 -40 -14
-16 -32 -39 -40 -51 -8 -13 -20 -20 -26 -16 -5 3 -7 1 -3 -5 3 -6 -2 -17 -12
-24 -11 -7 -20 -17 -20 -21 -1 -8 -18 -28 -69 -84 -13 -13 -23 -27 -23 -32 0
-4 -16 -22 -36 -39 -20 -18 -32 -32 -27 -32 4 -1 -1 -8 -12 -18 -11 -9 -28
-30 -38 -45 -10 -15 -23 -25 -29 -21 -6 4 -8 3 -5 -3 4 -6 0 -14 -8 -17 -8 -3
-14 -11 -13 -18 2 -7 -3 -12 -10 -10 -6 1 -11 -4 -10 -10 2 -7 -3 -12 -10 -10
-6 1 -11 -2 -10 -7 3 -9 -41 -66 -94 -122 -15 -16 -25 -29 -23 -29 5 0 -24
-36 -70 -86 -16 -18 -41 -47 -55 -65 -14 -18 -37 -45 -52 -60 -16 -15 -28 -31
-28 -36 0 -4 -22 -33 -50 -63 -27 -30 -62 -70 -77 -89 -15 -19 -42 -49 -60
-68 -17 -18 -28 -33 -25 -33 4 0 -7 -12 -24 -27 -16 -16 -32 -32 -34 -38 -3
-5 -9 -9 -13 -7 -5 1 -6 -2 -3 -7 4 -5 -4 -17 -16 -25 -12 -9 -18 -16 -13 -16
6 -1 1 -8 -10 -18 -11 -9 -31 -32 -43 -49 -13 -18 -29 -33 -36 -33 -19 0 -38
26 -40 55 0 14 -5 25 -10 25 -5 0 -7 3 -4 6 4 3 -3 25 -13 50 -11 24 -17 49
-14 54 3 6 2 10 -3 10 -9 0 -39 91 -33 99 1 2 -2 7 -8 10 -6 4 -12 16 -14 26
-1 11 -5 25 -8 30 -5 8 -19 55 -23 75 -1 3 -5 11 -9 18 -5 6 -5 17 -2 22 3 6
2 10 -2 10 -11 0 -34 60 -27 71 3 5 1 9 -4 9 -9 0 -26 53 -25 77 0 7 -3 10 -8
7 -8 -5 -10 0 -13 39 -1 6 -4 14 -7 17 -4 3 -9 16 -10 30 -2 14 -8 28 -12 31
-4 3 -9 16 -10 27 -1 12 -5 22 -9 22 -4 0 -8 10 -8 23 0 13 -4 27 -10 33 -5 5
-11 18 -13 29 -2 11 -6 27 -9 35 -3 8 -16 44 -28 80 -12 36 -26 73 -31 83 -5
10 -7 22 -4 27 3 4 0 10 -6 12 -6 2 -12 16 -12 31 -1 15 -6 27 -11 27 -4 0 -6
6 -3 14 3 8 1 16 -4 18 -5 2 -11 13 -12 26 0 12 -5 22 -10 22 -5 0 -7 7 -3 15
3 8 0 15 -6 15 -6 0 -8 3 -5 7 4 3 2 11 -3 18 -5 6 -11 20 -13 31 -2 10 -7 27
-11 36 -4 9 -9 22 -10 30 -2 7 -8 24 -13 38 -6 14 -9 28 -6 33 2 4 -1 7 -7 7
-7 0 -10 7 -6 15 3 8 1 15 -4 15 -4 0 -12 15 -16 33 -11 46 -14 53 -41 119 -8
20 -12 42 -8 50 5 7 4 10 0 6 -9 -9 -47 90 -40 103 3 4 0 9 -5 11 -6 2 -12 15
-14 30 -1 15 -8 34 -15 42 -7 8 -10 20 -6 26 3 5 1 10 -5 10 -7 0 -10 7 -6 15
3 8 1 15 -5 15 -6 0 -9 6 -6 14 3 8 1 16 -4 18 -5 2 -11 13 -12 26 0 12 -5 22
-10 22 -5 0 -7 7 -3 15 5 15 -5 20 -17 8z"/>
</g>
</svg>
